<?xml version="1.0" encoding="utf-8"?>
<!-- Generator: Adobe Illustrator 22.0.1, SVG Export Plug-In . SVG Version: 6.00 Build 0)  -->
<svg version="1.1" id="Layer_1" xmlns:sketch="http://www.bohemiancoding.com/sketch/ns"
	 xmlns="http://www.w3.org/2000/svg" xmlns:xlink="http://www.w3.org/1999/xlink" x="0px" y="0px" viewBox="0 0 60 60"
	 style="enable-background:new 0 0 60 60;" xml:space="preserve">
<style type="text/css">
	.st0{fill:#E29000;}
	.st1{fill:#FFFFFF;}
</style>
<title></title>
<g id="black">
	<g id="stackoverflow">
		<path class="st0" d="M30,60c16.6,0,30-13.4,30-30S46.6,0,30,0S0,13.4,0,30S13.4,60,30,60z"/>
		<path class="st1" d="M36.9,32l-15.4-3.2l-0.8,3.3l17.7,3.6l0.7-2.7l0.9,0.4l1.6-3.5l-16.9-8.1l-1.6,3.5L36.9,32L36.9,32z
			 M43.8,33.5v10.4H16.2V33.5h3.5v6.9h20.8v-6.9H43.8z M20.8,35.8h18.5v3.5H20.8V35.8z M43.8,27l-2.3,3l-15-11.7l1.7-2.2h1.7
			L43.8,27z"/>
	</g>
</g>
</svg>
